<svg xmlns="http://www.w3.org/2000/svg" viewBox="0 0 27 39" fill="currentColor"><path fill-rule="evenodd" clip-rule="evenodd" d="M5.09692 15.5294C5.06227 15.5403 5.03079 15.5451 5.00421 15.5593C4.79521 15.6713 4.58203 15.7766 4.38001 15.9006C4.14262 16.0463 3.91343 16.2063 3.70638 16.3967C3.62786 16.469 3.54246 16.5334 3.46013 16.6012C3.45165 16.6081 3.44195 16.6136 3.43401 16.6212C3.20019 16.8442 2.95182 17.0523 2.75923 17.3173C2.71891 17.3728 2.66902 17.421 2.62507 17.4738C2.5354 17.5817 2.44709 17.6907 2.3576 17.7987C2.33197 17.8296 2.31129 17.8774 2.26448 17.8682C2.22103 17.8597 2.20865 17.8133 2.19336 17.7739C2.14556 17.6502 2.09526 17.5275 2.04668 17.4042C1.95646 17.1751 1.88058 16.9411 1.82003 16.702C1.80234 16.6322 1.78724 16.5615 1.76451 16.4934C1.70795 16.3243 1.68478 16.148 1.65416 15.9735C1.62364 15.7992 1.59379 15.6242 1.57637 15.4482C1.55156 15.1974 1.5102 14.9483 1.51161 14.6946C1.5146 14.1584 1.51034 13.622 1.51374 13.0858C1.51455 12.9566 1.52208 12.8251 1.54785 12.6992C1.5756 12.5635 1.58227 12.4261 1.60363 12.2904C1.60876 12.2576 1.61715 12.2254 1.62309 12.1927C1.6552 12.0155 1.68564 11.838 1.71984 11.6612C1.72923 11.6127 1.74728 11.5654 1.76529 11.5192C1.80035 11.429 1.83813 11.34 1.87786 11.2431C1.90548 11.2411 1.93746 11.2367 1.96948 11.2367C2.31755 11.2362 2.66571 11.232 3.01369 11.2376C3.32538 11.2426 3.62918 11.308 3.92998 11.3867C4.17468 11.4507 4.41752 11.5226 4.66327 11.582C4.8886 11.6364 5.10232 11.7249 5.32094 11.7989C5.54519 11.8747 5.74834 11.9987 5.95843 12.1065C6.06983 12.1636 6.18172 12.2196 6.29344 12.2761C6.36642 12.3128 6.44166 12.3456 6.51197 12.387C6.58458 12.4299 6.65362 12.4794 6.72206 12.5291C6.80837 12.5916 6.89269 12.657 6.97755 12.7216C7.22112 12.9069 7.43099 13.1285 7.62711 13.3631C7.6965 13.4461 7.74476 13.5476 7.80781 13.649C7.83425 13.6375 7.86582 13.6238 7.8973 13.6101C8.06167 13.5381 8.22328 13.4584 8.39101 13.396C8.6075 13.3154 8.82847 13.2471 9.04855 13.1767C9.12347 13.1528 9.20194 13.1406 9.27805 13.1201C9.48805 13.0634 9.6966 13.0006 9.90769 12.9488C10.2008 12.8768 10.4955 12.8111 10.79 12.7454C11.0432 12.6889 11.3002 12.6661 11.5592 12.6599C11.6895 12.6567 11.8195 12.6346 11.9497 12.6338C12.6839 12.6297 13.4182 12.6288 14.1525 12.6288C14.2529 12.6288 14.3533 12.6385 14.4536 12.6457C14.6407 12.6592 14.8281 12.6704 15.0146 12.6899C15.1197 12.7009 15.224 12.7235 15.3275 12.7466C15.5049 12.7862 15.683 12.8246 15.8581 12.8737C16.0909 12.939 16.3214 13.0132 16.5524 13.0852C16.6977 13.1306 16.8428 13.1769 16.9867 13.2268C17.1974 13.2998 17.4075 13.3745 17.6166 13.4523C17.7871 13.5158 17.9588 13.5775 18.1239 13.6539C18.2666 13.7198 18.4011 13.8043 18.5382 13.8825C18.5758 13.904 18.6105 13.9297 18.6621 13.9248C18.666 13.8398 18.6271 13.7773 18.5783 13.7216C18.5256 13.6613 18.4648 13.6107 18.3905 13.578C18.2838 13.5309 18.2032 13.447 18.1196 13.3686C18.0593 13.312 17.999 13.2573 17.9221 13.2249C17.8998 13.2155 17.8782 13.202 17.8597 13.1862C17.6982 13.048 17.5107 12.9538 17.327 12.8527C17.2819 12.8279 17.2428 12.7918 17.1993 12.7635C17.0691 12.6788 16.9412 12.5898 16.8066 12.5128C16.6577 12.4276 16.5026 12.3538 16.3502 12.2751C16.2896 12.2438 16.2283 12.2137 16.1685 12.1809C16.1194 12.1539 16.0925 12.1115 16.0923 12.0528C16.0921 12.0112 16.0862 11.9692 16.0902 11.928C16.0932 11.8963 16.1008 11.8608 16.1182 11.8355C16.2335 11.6676 16.3501 11.5007 16.4702 11.3365C16.5333 11.2502 16.6003 11.1663 16.6722 11.0876C16.8742 10.8665 17.0774 10.6465 17.2845 10.4304C17.4061 10.3035 17.5372 10.1862 17.6615 10.0618C17.7506 9.97276 17.8312 9.87442 17.9234 9.78913C18.0056 9.71311 18.0986 9.64923 18.187 9.58021C18.2688 9.51647 18.3497 9.45161 18.4328 9.38977C18.5315 9.31635 18.6304 9.24325 18.732 9.17418C18.9762 9.00815 19.2322 8.86413 19.5013 8.74429C19.5632 8.71672 19.6195 8.67614 19.68 8.64478C19.8179 8.57321 19.9571 8.50414 20.0953 8.43294C20.1461 8.40672 20.1954 8.37735 20.2453 8.34932C20.3139 8.31078 20.3572 8.31491 20.4145 8.36758C20.4387 8.38986 20.4613 8.41404 20.4841 8.43785C20.5887 8.54676 20.6921 8.65683 20.7978 8.76462C20.908 8.8771 21.0012 9.00278 21.0822 9.13814C21.1715 9.28725 21.26 9.43684 21.3479 9.58679C21.4191 9.7082 21.4971 9.82638 21.5572 9.95335C21.641 10.1305 21.7142 10.3132 21.7858 10.4959C21.8554 10.6735 21.9198 10.8533 21.9815 11.0339C22.0047 11.1015 22.0122 11.1746 22.0298 11.2444C22.0561 11.349 22.0869 11.4525 22.1124 11.5573C22.1255 11.6111 22.1289 11.6672 22.141 11.7213C22.1572 11.7939 22.1812 11.8648 22.1952 11.9378C22.214 12.0354 22.2301 12.1339 22.2409 12.2328C22.2584 12.3928 22.2525 12.5579 22.2889 12.7128C22.3635 13.0307 22.3586 13.3518 22.3614 13.6736C22.3622 13.7624 22.3646 13.8515 22.3594 13.9401C22.3517 14.0701 22.3408 14.2002 22.3259 14.3296C22.3005 14.5502 22.2707 14.7702 22.2435 14.9906C22.2315 15.0872 22.2137 15.1811 22.1745 15.2716C22.1415 15.348 22.128 15.4318 22.1361 15.516C22.1391 15.5478 22.1481 15.5845 22.1672 15.6083C22.2481 15.7088 22.3341 15.8031 22.4457 15.8729C22.5285 15.9247 22.602 15.9929 22.6765 16.0576C22.7822 16.1494 22.8825 16.2478 22.9895 16.3377C23.1215 16.4485 23.2604 16.5508 23.392 16.662C23.4757 16.7327 23.5537 16.8107 23.6305 16.8892C23.8784 17.1429 24.1279 17.3953 24.3703 17.6544C24.5317 17.8268 24.6823 18.0096 24.8373 18.1882C24.9274 18.292 25.0179 18.3955 25.1058 18.5012C25.2128 18.6299 25.3184 18.7594 25.4061 18.9038C25.4487 18.9739 25.5083 19.033 25.5568 19.0996C25.6246 19.1926 25.6899 19.2875 25.755 19.3825C25.8437 19.512 25.9233 19.6489 26.0209 19.7708C26.2182 20.0173 26.3577 20.3011 26.5246 20.5668C26.5942 20.6778 26.6744 20.7956 26.6804 20.9361C26.6858 21.066 26.6916 21.199 26.6711 21.3262C26.6325 21.5665 26.5765 21.8039 26.501 22.0358C26.4506 22.1904 26.4054 22.3468 26.359 22.5028C26.2074 23.0128 26.0134 23.5056 25.7792 23.9816C25.612 24.3214 25.4454 24.6617 25.2661 24.9949C25.1472 25.2159 25.0108 25.4275 24.8741 25.6378C24.757 25.8179 24.63 25.9913 24.5043 26.1654C24.4029 26.3059 24.3011 26.4465 24.1921 26.5808C24.0326 26.7771 23.8691 26.9701 23.7023 27.16C23.559 27.3231 23.4116 27.4829 23.2603 27.6383C23.1725 27.7284 23.074 27.8076 22.9791 27.8904C22.878 27.9785 22.7762 28.0661 22.6733 28.1521C22.5998 28.2134 22.5236 28.2713 22.4491 28.3314C22.3959 28.3744 22.3419 28.4165 22.2908 28.462C22.0954 28.6358 21.8729 28.7708 21.6599 28.9189C21.3117 29.1611 20.9471 29.3759 20.5727 29.5731C20.3701 29.6796 20.1606 29.769 19.9483 29.8543C19.6068 29.9916 19.2604 30.1134 18.9119 30.2297C18.6013 30.3333 18.2827 30.401 17.9606 30.4558C17.5895 30.5189 17.2147 30.5369 16.8411 30.5716C16.6461 30.5897 16.4513 30.6088 16.2563 30.6267C16.2076 30.6312 16.1586 30.6347 16.1097 30.6362C14.8396 30.6753 13.569 30.6698 12.2985 30.667C11.7136 30.6657 11.1286 30.6697 10.5437 30.6666C10.1734 30.6646 9.80482 30.6341 9.43875 30.5749C9.28857 30.5507 9.13735 30.5329 8.98786 30.5053C8.64886 30.4427 8.31054 30.3765 7.97218 30.3103C7.86841 30.29 7.76495 30.2675 7.66235 30.2419C7.44364 30.1872 7.22584 30.1287 7.00713 30.0739C6.40687 29.9236 5.819 29.7327 5.2452 29.4992C4.85671 29.341 4.47277 29.171 4.08946 29.0001C3.99067 28.956 3.90041 28.891 3.80897 28.8312C3.67199 28.7416 3.53719 28.6486 3.40217 28.5559C3.37981 28.5406 3.36071 28.5202 3.34039 28.5018C3.17983 28.3573 3.02539 28.205 2.83593 28.0979C2.81974 28.0887 2.807 28.0728 2.79357 28.0591C2.50855 27.7687 2.22189 27.4799 1.94009 27.1863C1.87655 27.1201 1.83024 27.0367 1.77531 26.9617C1.72016 26.8865 1.66319 26.8125 1.60885 26.7367C1.55293 26.6586 1.49097 26.5834 1.44634 26.4989C1.3646 26.3442 1.26926 26.2007 1.16639 26.06C1.08258 25.9453 1.02035 25.8137 0.953081 25.6871C0.90523 25.597 0.861143 25.5044 0.822046 25.4101C0.72158 25.1676 0.621478 24.9247 0.528315 24.6793C0.495295 24.5923 0.489943 24.4946 0.459509 24.4062C0.401225 24.237 0.368614 24.0649 0.365575 23.8855C0.363806 23.7834 0.34657 23.6813 0.348838 23.5795C0.350153 23.5207 0.372696 23.4611 0.392381 23.4043C0.421999 23.3188 0.450982 23.2321 0.491757 23.152C0.615854 22.908 0.64216 22.6325 0.738272 22.3796C0.828123 22.1431 0.891532 21.896 1.01536 21.6731C1.03613 21.6357 1.04157 21.5895 1.05418 21.5474C1.06842 21.4999 1.0784 21.4505 1.09809 21.4055C1.14444 21.2995 1.19778 21.1967 1.24359 21.0906C1.26296 21.0456 1.27049 20.9953 1.2836 20.9475C1.29521 20.9051 1.30129 20.8599 1.31993 20.821C1.40515 20.6427 1.49405 20.4662 1.58145 20.289C1.70197 20.0445 1.82302 19.8002 1.94249 19.5553C2.03802 19.3595 2.13163 19.1627 2.22616 18.9664C2.23214 18.9539 2.23836 18.9416 2.2453 18.9297C2.3469 18.7559 2.44623 18.5805 2.55146 18.409C2.6018 18.327 2.66399 18.2526 2.72005 18.1742C2.81112 18.0468 2.90678 17.9223 2.99119 17.7903C3.13919 17.559 3.32352 17.3598 3.51148 17.1642C3.8507 16.8113 4.19233 16.4608 4.53749 16.1139C4.64562 16.0052 4.76845 15.9119 4.88406 15.8109C4.94189 15.7604 4.99986 15.71 5.05533 15.6569C5.08486 15.6288 5.11348 15.5969 5.09692 15.5294ZM21.1519 22.5579C21.1556 22.551 21.1593 22.544 21.163 22.5371C21.1531 22.5246 21.144 22.5113 21.1333 22.4995C21.0635 22.4219 20.9958 22.3422 20.9222 22.2686C20.8907 22.2369 20.8475 22.2168 20.808 22.1943C20.7846 22.1809 20.7512 22.1798 20.7345 22.1616C20.6617 22.0824 20.5626 22.0486 20.4743 21.9966C20.3447 21.9202 20.2144 21.845 20.0847 21.7687C20.0362 21.7402 19.991 21.7045 19.9401 21.6814C19.802 21.6187 19.6604 21.5637 19.5225 21.5005C19.3168 21.4063 19.0943 21.376 18.8781 21.3249C18.7451 21.2934 18.6031 21.2982 18.4651 21.2929C18.3816 21.2896 18.2977 21.2969 18.2141 21.3017C18.1821 21.3035 18.1505 21.312 18.1186 21.3163C18.0759 21.3222 18.0323 21.324 17.9901 21.3329C17.9374 21.3441 17.8864 21.3564 17.8308 21.3504C17.7978 21.3469 17.7617 21.3608 17.7287 21.3722C17.6186 21.4103 17.5118 21.462 17.3991 21.4879C17.2063 21.5322 17.0362 21.6338 16.851 21.6961C16.7899 21.7165 16.7298 21.7428 16.6734 21.7743C16.6024 21.8138 16.5351 21.8606 16.4671 21.9057C16.3238 22.001 16.1789 22.094 16.0388 22.1942C15.9477 22.2593 15.8639 22.3352 15.832 22.454C15.8792 22.4782 15.9111 22.448 15.945 22.4272C15.9868 22.4017 16.0275 22.3742 16.0703 22.3506C16.1298 22.3179 16.1952 22.2945 16.2499 22.2553C16.3108 22.2117 16.376 22.1813 16.4429 22.1505C16.579 22.0879 16.7116 22.0176 16.8466 21.9527C16.8979 21.928 16.9504 21.9032 17.005 21.8886C17.1937 21.8382 17.3834 21.7913 17.5731 21.7453C17.6252 21.7326 17.679 21.7217 17.7323 21.7199C17.9441 21.7127 18.156 21.7037 18.3676 21.7063C18.6037 21.7092 18.84 21.7182 19.0755 21.7352C19.2987 21.7514 19.5139 21.8144 19.7225 21.8942C19.9359 21.9759 20.1442 22.0711 20.356 22.1571C20.6086 22.2596 20.8545 22.3753 21.0833 22.5265C21.1041 22.5402 21.129 22.5475 21.1519 22.5579ZM6.96141 22.4309C7.02332 22.4553 7.06078 22.4341 7.09811 22.413C7.18352 22.3646 7.26775 22.3139 7.35438 22.268C7.59627 22.1399 7.83584 22.0067 8.08258 21.889C8.29921 21.7858 8.5254 21.7169 8.77101 21.7115C9.19786 21.7021 9.6244 21.6797 10.0514 21.7006C10.1432 21.7051 10.2347 21.7182 10.326 21.7301C10.4329 21.7441 10.5405 21.7559 10.6458 21.7781C10.8 21.8105 10.9498 21.8598 11.0932 21.9276C11.1989 21.9775 11.306 22.0242 11.411 22.0756C11.5356 22.1365 11.659 22.2002 11.7822 22.2643C11.8323 22.2904 11.8814 22.3192 11.9291 22.3498C12.0507 22.428 12.1712 22.5079 12.2922 22.5871C12.2963 22.5822 12.3004 22.5772 12.3045 22.5723C12.2521 22.5097 12.2038 22.4427 12.1461 22.3856C12.0799 22.3202 12.0047 22.2643 11.9345 22.2029C11.8317 22.1131 11.7345 22.0172 11.611 21.9539C11.3906 21.8407 11.1733 21.7211 10.9542 21.6053C10.8829 21.5677 10.8123 21.5262 10.7369 21.4996C10.6219 21.459 10.5011 21.4353 10.3862 21.3944C10.2189 21.3348 10.0454 21.3218 9.87213 21.3193C9.64131 21.316 9.41004 21.3227 9.17949 21.3356C9.03657 21.3435 8.8912 21.3384 8.75141 21.3822C8.72565 21.3902 8.69825 21.3931 8.67149 21.3978C8.49687 21.4281 8.32769 21.4775 8.16885 21.5578C8.01822 21.6341 7.87308 21.7189 7.73225 21.8147C7.4919 21.9784 7.256 22.1464 7.04055 22.3432C7.01488 22.3666 6.99352 22.395 6.96141 22.4309Z"/></svg>
